Coordinates
version=1
nRows=19
nColumns=36
inDegrees=yes

Units are S.I. units (second, meters, Newtons, ...)
If the header above contains a line with 'inDegrees', this indicates whether rotational values are in degrees (yes) or radians (no).

endheader
time	pelvis_tilt	pelvis_list	pelvis_rotation	pelvis_tx	pelvis_ty	pelvis_tz	hip_flexion_r	hip_adduction_r	hip_rotation_r	knee_angle_r	knee_angle_r_beta	ankle_angle_r	subtalar_angle_r	mtp_angle_r	hip_flexion_l	hip_adduction_l	hip_rotation_l	knee_angle_l	knee_angle_l_beta	ankle_angle_l	subtalar_angle_l	mtp_angle_l	lumbar_extension	lumbar_bending	lumbar_rotation	arm_flex_r	arm_add_r	arm_rot_r	elbow_flex_r	pro_sup_r	arm_flex_l	arm_add_l	arm_rot_l	elbow_flex_l	pro_sup_l
     -1.66000000	    -18.27111093	      6.33520232	    -42.54683285	     -1.70956741	      1.10669723	     -0.23607789	     31.97414080	     17.95794419	      1.82992160	      8.15657535	      0.14235910	     -0.01688262	     16.49470699	     -7.00189037	     32.01387374	      1.32063660	      3.90207094	     16.89575745	      0.29488660	      7.49753243	    -34.34496374	     -7.00189037	     -4.95872683	      0.64508176	     10.61473821	     28.25992059	     35.32227922	    -98.99831115	     48.85709510	     30.38642161	     35.58025172	      0.85413076	     36.32885912	      1.19822484	     79.22459313
     -1.65000000	    -13.63527651	      4.18378598	    -44.22989291	     -1.69959115	      1.12305476	     -0.23299871	     25.45607257	     16.97995208	      5.71363229	      7.84544840	      0.13692891	      0.28035236	     18.99538206	     -7.11673323	     24.77260207	      3.02665015	      0.33813390	     14.45087878	      0.25221541	      7.19898676	    -34.22456381	     -7.11673323	    -10.78940879	     -0.80155556	     11.10338448	     29.53160125	     35.12630590	   -100.65582688	     48.88988573	     29.63992223	     36.98270645	      1.33335334	     27.86910812	      1.40701452	     74.06675008
     -1.64000000	     -9.95879538	      2.04358097	    -45.27716754	     -1.69052445	      1.13606427	     -0.23111396	     19.93233316	     16.15677476	      8.94244613	      7.47006393	      0.13037721	      0.35579595	     21.03246169	     -7.14148141	     18.81019240	      4.58636945	     -2.46305792	     12.71880148	      0.22198496	      6.70979268	    -34.07504757	     -7.14148141	    -15.63239727	     -1.54508492	     11.41540507	     30.31472097	     34.92964922	   -101.42237675	     49.30154227	     29.88398217	     38.18691407	      1.85650535	     24.43298655	      1.42962333	     71.36646741
     -1.63000000	     -8.21361742	      1.10926431	    -45.49064573	     -1.68303080	      1.14277841	     -0.23079134	     17.39374924	     15.56737645	     11.28962629	      7.54066043	      0.13160935	      0.24872840	     21.86978272	     -7.21814551	     16.19750610	      5.82968967	     -4.26287647	     12.52554965	      0.21861208	      5.91992038	    -33.96961309	     -7.21814551	    -17.68751262	     -1.66579194	     11.16758659	     30.75512548	     34.73655349	   -102.77653827	     49.52380085	     31.53848766	     38.57440683	      2.59000983	     12.37501128	      2.18356940	     59.82781340
     -1.62000000	     -7.67525893	      0.85281171	    -45.00798513	     -1.67657551	      1.14534576	     -0.23186612	     16.67394875	     15.21195680	     12.82118624	      7.80068901	      0.13614771	     -0.05850053	     21.83612598	     -7.48655338	     15.75217258	      6.68132465	     -5.21197502	     13.57846196	      0.23698887	      4.89969612	    -33.90656136	     -7.48655338	    -18.26861008	     -1.32466724	     10.84836750	     30.49763602	     34.40238067	   -102.43938321	     49.50135034	     35.02201334	     38.78745063	      3.26276449	     11.70962264	      2.33700167	     44.67709569
     -1.61000000	     -8.14977571	      1.21186935	    -44.02100244	     -1.67090783	      1.14465538	     -0.23399389	     17.53699793	     15.06408990	     13.77900408	      8.32350340	      0.14527254	     -0.60838007	     20.83347708	     -7.49892502	     17.13156510	      7.16853741	     -5.75008350	     15.65768334	      0.27327813	      3.55490522	    -33.82287488	     -7.49892502	    -17.52666470	     -0.61891998	     10.44545358	     30.01694718	     33.94140227	   -101.66378406	     49.51188818	     34.86297017	     38.50081360	      3.80085831	      5.00486340	      3.12491791	     44.80078550
     -1.60000000	     -9.31495388	      1.86323400	    -42.70703615	     -1.66546057	      1.14207392	     -0.23683928	     19.36835943	     15.08433212	     14.26070549	      9.02930191	      0.15759105	     -1.37902626	     19.20872515	     -7.49960542	     19.64458329	      7.31959301	     -6.20194426	     18.43431741	      0.32173953	      1.96182195	    -33.69469655	     -7.49960542	    -15.98809685	      0.46827056	      9.78073799	     29.35176005	     33.42543698	   -100.70644701	     49.06521708	     42.43766407	     37.17752592	      4.41049067	     -8.54265182	      6.35015717	     49.19698970
     -1.59000000	    -10.83633700	      2.59059991	    -41.25560822	     -1.65981122	      1.13883835	     -0.23988436	     21.62408225	     15.18724422	     14.57393875	      9.84562003	      0.17183849	     -2.37421830	     17.01018631	     -7.50021778	     22.63045093	      7.22873653	     -6.83964742	     21.50745996	      0.37537599	      0.21235737	    -33.47432615	     -7.50021778	    -14.22333700	      1.40452980	      8.12288889	     28.41143552	     33.15076220	    -97.92479304	     48.68956512	     39.13499946	     33.60113430	      7.38590132	    -44.15364031	     18.76869699	     79.65815737
     -1.58000000	    -12.30133472	      3.18738304	    -39.74354437	     -1.65444682	      1.13588510	     -0.24278011	     23.80844776	     15.26529485	     14.68920871	     10.75976244	      0.18779328	     -3.38325416	     14.59277149	     -7.50016932	     25.56443926	      6.98248825	     -7.77374226	     24.78569446	      0.43259198	     -1.45106881	    -33.10694995	     -7.50016932	    -12.23985622	      2.43284597	      7.63756442	     27.70739133	     32.38214586	    -96.62571232	     48.34238257	     41.71310726	     32.99702938	      8.01520971	    -45.46694550	     19.05763614	     77.84345513
     -1.57000000	    -13.23848593	      3.36152327	    -38.30664429	     -1.64916641	      1.13455573	     -0.24518630	     25.17233412	     15.27465616	     14.79487785	     11.55684682	      0.20170503	     -4.32377863	     12.08536065	     -7.50013145	     27.67511453	      6.59958551	     -9.03197540	     27.96626890	      0.48810347	     -2.95133316	    -32.57405125	     -7.50013145	    -11.08814312	      3.28272747	      7.29192439	     27.25854695	     31.54028936	    -95.41736648	     47.99812135	     44.19886034	     32.49185356	      8.78685819	    -46.84951019	     19.90110521	     76.30911850
     -1.56000000	    -14.39250454	      3.59497841	    -36.78474860	     -1.64404795	      1.13293901	     -0.24700107	     26.80334270	     15.27202927	     14.47946072	     12.40089838	      0.21643651	     -5.00373101	      9.90322496	     -7.50010961	     30.10254072	      5.97824208	    -10.41374278	     31.41164345	      0.54823660	     -3.48369609	    -31.45319028	     -7.50010961	     -9.52610189	      4.13891220	      6.50316089	     26.23510598	     30.68704554	    -92.60651084	     47.15614628	     46.91624928	     31.94415516	      9.53564092	    -51.42431779	     20.92677972	     81.84965063
     -1.55000000	    -14.60107813	      3.28137616	    -35.44738124	     -1.63950014	      1.13349462	     -0.24808962	     27.10915552	     15.22445688	     14.74800303	     13.01364057	      0.22713088	     -5.57353016	      7.10662616	     -7.49997553	     31.24406372	      5.25622800	    -11.93379811	     34.62997011	      0.60440700	     -3.39367917	    -29.96534591	     -7.49997553	     -9.57745801	      4.49807434	      6.31977656	     25.84973232	     30.02334538	    -94.55486496	     46.52620797	    104.63437105	     32.19780756	     11.42372153	    -61.57158231	     24.08603429	     98.02078352
     -1.54000000	    -14.92990585	      3.02816960	    -34.02824896	     -1.63519904	      1.13374741	     -0.24866684	     27.57804169	     15.15014987	     14.64942785	     13.61732935	      0.23766723	     -5.68738015	      4.90467370	     -7.49997869	     32.62411826	      4.37149232	    -13.19780356	     37.96862325	      0.66267749	     -2.40598065	    -27.92766369	     -7.49997869	     -9.24561630	      4.96780453	      5.79009703	     25.30106920	     29.24934780	    -92.38999413	     46.04308982	    105.69656426	     32.14102252	     11.93717962	    -63.17449687	     24.78785423	     98.39535420
     -1.53000000	    -15.07944851	      2.61965999	    -32.55739717	     -1.63097339	      1.13433730	     -0.24902139	     27.76841159	     15.10350566	     14.57657014	     14.14427545	      0.24686418	     -5.64554355	      2.67611152	     -7.49998331	     33.81502938	      3.40104465	    -14.07570160	     41.27771213	      0.72043198	     -0.89406969	    -25.67537895	     -7.49998331	     -9.27211109	      5.34000364	      5.10507379	     24.80853322	     28.61476995	    -90.25950807	     45.62122654	    109.26464800	     32.32721641	     12.68541145	    -66.61374779	     26.30012246	    101.29767751
     -1.52000000	    -15.23528238	      2.15015605	    -31.02444716	     -1.62651487	      1.13490660	     -0.24934366	     27.91243422	     15.10649028	     14.50934686	     14.61349331	      0.25505357	     -5.65514249	      0.45833677	     -7.49998396	     35.08242966	      2.40125125	    -14.45391735	     44.57599967	      0.77799796	      0.78061584	    -23.62981980	     -7.49998396	     -9.34905922	      5.78769674	      4.69947522	     24.61957336	     28.03000114	    -89.29630935	     45.46715080	    109.22056750	     32.47295847	     13.09510666	    -66.92832509	     26.78520071	    101.47608117
     -1.51000000	    -15.42205406	      1.77819211	    -29.57876720	     -1.62160540	      1.13534108	     -0.24952457	     28.13485768	     15.10620931	     14.58777453	     15.13289552	      0.26411885	     -5.64242505	     -1.69272087	     -7.49998470	     36.43665657	      1.42581041	    -14.67909942	     47.74456317	      0.83329983	      2.88322420	    -20.95685119	     -7.49998470	     -9.37796793	      6.08249830	      3.90660602	     24.08175902	     27.48195678	    -86.91691795	     44.91129177	    109.97697239	     32.49604263	     13.39415276	    -67.93826313	     27.77283551	    102.21757842
     -1.50000000	    -15.46618148	      1.37750266	    -28.18587986	     -1.61586559	      1.13584055	     -0.24979393	     28.21761645	     15.07257821	     14.61130646	     15.76912233	      0.27522310	     -5.48160449	     -3.25655522	     -7.49998824	     37.58909299	      0.61862533	    -14.58974242	     50.65841147	      0.88415607	      4.12905960	    -19.26603054	     -7.49998824	     -9.54054831	      6.23167896	      2.76572541	     23.17762947	     26.75954417	    -83.18659524	     43.75992227	    113.50267208	     32.77010183	     14.26552170	    -73.07905202	     30.49020338	    108.72489416
     -1.49000000	    -15.55919692	      0.86360466	    -26.78740566	     -1.60914828	      1.13586734	     -0.25020314	     28.17212823	     15.12024715	     14.54191409	     16.20686792	      0.28286321	     -5.72280221	     -4.84125394	     -7.49998860	     38.69999684	     -0.15851467	    -14.17998322	     53.45316587	      0.93293374	      5.28437783	    -17.82110110	     -7.49998860	     -9.68326691	      6.76755165	      2.17317420	     22.68511068	     26.10144935	    -81.58006868	     43.28270900	    113.34368927	     32.69967841	     14.62033695	    -73.11585163	     31.25613950	    108.86185495
     -1.48000000	    -15.63551984	      0.57205633	    -25.71317760	     -1.60188443	      1.13510370	     -0.24992393	     28.22086221	     15.14469956	     14.78933006	     16.85115303	      0.29410810	     -5.94574481	     -6.41060591	     -7.49998948	     39.72085861	     -0.86888921	    -14.05941987	     55.96807760	      0.97682723	      6.14394356	    -16.45602508	     -7.49998948	     -9.63165362	      6.93347679	      1.05177605	     21.35902455	     25.06990692	    -76.25598064	     41.64585604	    114.22726916	     32.32543371	     14.99025585	    -74.60770627	     33.38413096	    110.45868087
